<svg height="512" viewBox="0 0 64 64" width="512" xmlns="http://www.w3.org/2000/svg" xmlns:xlink="http://www.w3.org/1999/xlink"><linearGradient id="New_Gradient_Swatch_1" gradientUnits="userSpaceOnUse" x1="26" x2="26" y1="-6.53" y2="67.125"><stop offset="0" stop-color="#fff33b"/><stop offset=".014" stop-color="#fee72e"/><stop offset=".042" stop-color="#fed51b"/><stop offset=".07" stop-color="#fdca10"/><stop offset=".1" stop-color="#fdc70c"/><stop offset=".4" stop-color="#f3903f"/><stop offset=".8" stop-color="#ed683c"/><stop offset="1" stop-color="#e93e3a"/></linearGradient><linearGradient id="New_Gradient_Swatch_1-2" x1="38" x2="38" xlink:href="#New_Gradient_Swatch_1" y1="-6.53" y2="67.125"/><linearGradient id="New_Gradient_Swatch_1-3" x1="32" x2="32" xlink:href="#New_Gradient_Swatch_1" y1="-6.53" y2="67.125"/><linearGradient id="New_Gradient_Swatch_1-4" x1="28" x2="28" xlink:href="#New_Gradient_Swatch_1" y1="-6.53" y2="67.125"/><g id="avatar-man-boy-user-people"><path d="m29 23a3 3 0 0 0 -6 0h2a1 1 0 0 1 2 0z" fill="url(#New_Gradient_Swatch_1)"/><path d="m38 22a1 1 0 0 1 1 1h2a3 3 0 0 0 -6 0h2a1 1 0 0 1 1-1z" fill="url(#New_Gradient_Swatch_1-2)"/><path d="m49.29 43.46-12.29-3.23v-3.23a13.022 13.022 0 0 0 7.84-10.08 4.967 4.967 0 0 0 3.16-7.89v-1.03a16 16 0 0 0 -32 0v1.03a4.939 4.939 0 0 0 -1 2.97 4.982 4.982 0 0 0 4.16 4.92 13.037 13.037 0 0 0 7.84 10.08v3.23l-12.3 3.23a9.03 9.03 0 0 0 -6.7 8.71v8.83a1 1 0 0 0 1 1h46a1 1 0 0 0 1-1v-8.83a9.028 9.028 0 0 0 -6.71-8.71zm-2.29-21.46a3.022 3.022 0 0 1 -.87 2.12 2.951 2.951 0 0 1 -1.13.69v-5.63a3.01 3.01 0 0 1 2 2.82zm-28 2.82a3.179 3.179 0 0 1 -1.12-.69 3 3 0 0 1 1.12-4.95zm-.97-7.41a13.973 13.973 0 0 1 23.86-9.3 13.808 13.808 0 0 1 4.08 9.3 4.959 4.959 0 0 0 -1.97-.41h-14.43l-2.71-4.51a1.037 1.037 0 0 0 -1.72 0l-2.71 4.51h-2.43a5 5 0 0 0 -1.97.41zm2.97 7.59v-6h2a.99.99 0 0 0 .86-.49l2.14-3.57 2.14 3.57a.99.99 0 0 0 .86.49h14v6a11 11 0 0 1 -22 0zm14 12.64v2.82l-3 2.01-3-2.01v-2.82a12.68 12.68 0 0 0 6 0zm-12 11.36v11h-13v-7.83a7.019 7.019 0 0 1 5.21-6.77l12.61-3.32 2.38 1.59-6.75 4.5a1 1 0 0 0 -.45.83zm31 11h-29v-10.46l11.18-7.46 12.6 3.32a7.017 7.017 0 0 1 5.22 6.77z" fill="url(#New_Gradient_Swatch_1-3)"/><path d="m27 50h2v2h-2z" fill="url(#New_Gradient_Swatch_1-4)"/><path d="m27 56h2v2h-2z" fill="url(#New_Gradient_Swatch_1-4)"/><path d="m37 29h-2c0 .249-1.064 1-3 1s-3-.751-3-1h-2c0 1.71 2.149 3 5 3s5-1.29 5-3z" fill="url(#New_Gradient_Swatch_1-3)"/></g></svg>